<svg xmlns="http://www.w3.org/2000/svg" style="fill: white;" viewBox="0 0 125.76 97.52"><defs></defs><g id="Layer_2" data-name="Layer 2"><g id="Layer_1-2" data-name="Layer 1"><path className="cls-1" d="M125.67,68.18c0-1.71,0-3.42-.18-5.13-.11-1.42-.18-2.85-.33-4.26-.21-1.86-.46-3.71-.73-5.56a90.55,90.55,0,0,0-1.77-8.94,106.67,106.67,0,0,0-3.21-10.68,100.07,100.07,0,0,0-4.1-9.87c-1.11-2.3-2.29-4.58-3.51-6.82-1.57-2.92-3.32-5.73-5.16-8.49A1.17,1.17,0,0,0,106.2,8a95.57,95.57,0,0,0-9.68-3.92A98.75,98.75,0,0,0,84.84.8C83.57.52,82.29.28,81,0c-.37-.07-.42,0-.6.29s-.49.87-.71,1.33c-.76,1.6-1.5,3.21-2.25,4.82-.18.4-.17.4-.63.34L75,6.59c-2.27-.3-4.54-.52-6.83-.64-1.41-.07-2.82-.14-4.23-.17-1,0-2,0-3.06.06-1.58,0-3.16.11-4.75.19-.93,0-1.87.12-2.81.22-1.5.17-3,.38-4.48.56-.47.06-.47.06-.65-.38-.91-2.07-1.89-4.1-3-6.09C45.06,0,45,0,44.63,0c-3.37.63-6.7,1.37-10,2.31-2.87.83-5.71,1.73-8.48,2.84C23.92,6.06,21.72,7,19.51,8a1.19,1.19,0,0,0-.6.51c-.26.44-.56.86-.84,1.3a125.11,125.11,0,0,0-8.13,14.8C8.48,27.74,7.16,31,6,34.22a105.66,105.66,0,0,0-3.3,11.29A104.57,104.57,0,0,0,.71,57C.46,59.12.3,61.25.14,63.37.05,64.62,0,65.88,0,67.13c0,2,0,3.9,0,5.85,0,.58,0,1.17,0,1.74.07,1.36.17,2.72.26,4.08,0,.66.13,1.32.15,2a.92.92,0,0,0,.43.73q3.75,2.77,7.72,5.24a101.73,101.73,0,0,0,11.32,6.07,107.08,107.08,0,0,0,11.59,4.48l.74.21c1.81-2.21,6.54-10.13,6.67-11.17A66.15,66.15,0,0,1,28.3,81.11c.18-.17.31-.28.44-.39.63-.5,1.26-1,1.88-1.5a.62.62,0,0,1,.79-.1,78.1,78.1,0,0,0,13.45,4.82c2.18.55,4.37,1,6.59,1.36,1.86.28,3.72.54,5.6.67,1.33.08,2.66.21,4,.24,1.51,0,3,0,4.52-.07s2.91-.16,4.36-.27c1.88-.15,3.74-.44,5.6-.76a74.9,74.9,0,0,0,9.58-2.38,74.64,74.64,0,0,0,9.23-3.64.51.51,0,0,1,.63.06c.72.59,1.45,1.16,2.18,1.74a1.39,1.39,0,0,1,.2.24c-1.14.72-2.28,1.36-3.46,2s-2.38,1.2-3.59,1.75-2.4,1-3.63,1.57a79.14,79.14,0,0,0,6.73,11.11l.66-.19c1.61-.55,3.23-1.09,4.84-1.68a98.38,98.38,0,0,0,12.9-5.84,101.11,101.11,0,0,0,9.13-5.57c1.33-.91,2.63-1.87,4-2.81a.71.71,0,0,0,.33-.57c.07-1,.17-1.94.24-2.91s.15-2.19.19-3.29c0-1.34.1-2.69.12-4C125.77,69.81,125.68,69,125.67,68.18ZM52,59.77a11.53,11.53,0,0,1-6.1,6A9.91,9.91,0,0,1,35.6,64.34a12.67,12.67,0,0,1-4.7-7.56A14.23,14.23,0,0,1,30.77,51a13.5,13.5,0,0,1,3.06-6.58,10.55,10.55,0,0,1,6.76-3.75,10.12,10.12,0,0,1,8.2,2.51,12.65,12.65,0,0,1,4.33,7.92c.12.79.16,1.59.24,2.38A14.91,14.91,0,0,1,52,59.77Zm41.63.36a11.73,11.73,0,0,1-5.38,5.42,10.39,10.39,0,0,1-4.6,1,10.29,10.29,0,0,1-6.72-2.67A13.09,13.09,0,0,1,72.57,56a14.19,14.19,0,0,1,1-8.28,11.94,11.94,0,0,1,5.73-6.07,10,10,0,0,1,3.43-.95,10.35,10.35,0,0,1,8.39,3A12.84,12.84,0,0,1,95,51.4,14.4,14.4,0,0,1,93.58,60.13Z"/></g></g></svg>