<?xml version="1.0" encoding="UTF-8"?><svg id="Layer_2" xmlns="http://www.w3.org/2000/svg" xmlns:xlink="http://www.w3.org/1999/xlink" viewBox="0 0 226.28 45.09"><defs><style>.cls-1{fill:url(#linear-gradient-2);}.cls-2{fill:#fff;}.cls-3{fill:url(#linear-gradient-6);}.cls-4{fill:url(#linear-gradient-5);}.cls-5{fill:url(#linear-gradient-7);}.cls-6{fill:url(#linear-gradient-9);}.cls-7{fill:url(#linear-gradient-3);}.cls-8{fill:url(#linear-gradient);}.cls-9{fill:url(#linear-gradient-4);}.cls-10{fill:url(#linear-gradient-8);}</style><linearGradient id="linear-gradient" x1="1265.94" y1="41.32" x2="1255.32" y2="37.94" gradientTransform="translate(-1197.05 353.62) rotate(-17.69)" gradientUnits="userSpaceOnUse"><stop offset=".21" stop-color="#13509e"/><stop offset=".61" stop-color="#2384c5"/><stop offset="1" stop-color="#32b3e8"/></linearGradient><linearGradient id="linear-gradient-2" x1="3024.35" y1="1741.72" x2="3017.87" y2="1741.33" gradientTransform="translate(-2925.83 1900.42) rotate(-62.69)" gradientUnits="userSpaceOnUse"><stop offset=".01" stop-color="#13509e"/><stop offset=".19" stop-color="#165aa5"/><stop offset=".49" stop-color="#1f76ba"/><stop offset=".88" stop-color="#2da3dc"/><stop offset="1" stop-color="#32b3e8"/></linearGradient><linearGradient id="linear-gradient-3" x1="3043.08" y1="1835.77" x2="3059" y2="1830.69" gradientTransform="translate(2691.91 2361.7) rotate(-107.69) scale(1 -1)" gradientUnits="userSpaceOnUse"><stop offset="0" stop-color="#13509e"/><stop offset=".2" stop-color="#175da8"/><stop offset=".57" stop-color="#2281c3"/><stop offset="1" stop-color="#32b3e8"/></linearGradient><linearGradient id="linear-gradient-4" x1="2994.97" y1="4161.03" x2="3000.83" y2="4171.19" gradientTransform="translate(2466.77 4536.4) rotate(-64.18) scale(1 -1)" gradientUnits="userSpaceOnUse"><stop offset="0" stop-color="#13509e"/><stop offset=".17" stop-color="#1557a3"/><stop offset=".41" stop-color="#1b6bb2"/><stop offset=".71" stop-color="#258bca"/><stop offset="1" stop-color="#32b3e8"/></linearGradient><linearGradient id="linear-gradient-5" x1="-1050.67" y1="5981.25" x2="-1065.74" y2="5985.29" gradientTransform="translate(820.82 6054.73) rotate(162.31)" gradientUnits="userSpaceOnUse"><stop offset="0" stop-color="#13509e"/><stop offset=".17" stop-color="#1557a3"/><stop offset=".41" stop-color="#1b6bb2"/><stop offset=".71" stop-color="#258ccb"/><stop offset="1" stop-color="#32b3e8"/></linearGradient><linearGradient id="linear-gradient-6" x1="-2810.52" y1="4306.35" x2="-2823.04" y2="4305.6" gradientTransform="translate(2549.6 4507.93) rotate(117.31)" gradientUnits="userSpaceOnUse"><stop offset="0" stop-color="#13509e"/><stop offset=".19" stop-color="#1454a1"/><stop offset=".4" stop-color="#1861ab"/><stop offset=".61" stop-color="#1f77bb"/><stop offset=".83" stop-color="#2895d1"/><stop offset="1" stop-color="#32b3e8"/></linearGradient><linearGradient id="linear-gradient-7" x1="-2895.8" y1="4143.69" x2="-2890.8" y2="4151.48" gradientTransform="translate(-3068.14 4046.64) rotate(72.31) scale(1 -1)" gradientUnits="userSpaceOnUse"><stop offset="0" stop-color="#13509e"/><stop offset=".17" stop-color="#1558a4"/><stop offset=".44" stop-color="#1d70b6"/><stop offset=".78" stop-color="#2996d3"/><stop offset="1" stop-color="#32b3e8"/></linearGradient><linearGradient id="linear-gradient-8" x1="-2825.48" y1="1705.09" x2="-2818.21" y2="1712.77" gradientTransform="translate(-2807.96 1741.52) rotate(117.31) scale(1 -1)" gradientUnits="userSpaceOnUse"><stop offset="0" stop-color="#13509e"/><stop offset=".2" stop-color="#1454a1"/><stop offset=".4" stop-color="#1860aa"/><stop offset=".61" stop-color="#1e75b9"/><stop offset=".81" stop-color="#2792cf"/><stop offset="1" stop-color="#32b3e8"/></linearGradient><linearGradient id="linear-gradient-9" x1="1588.35" y1="10927.38" x2="1594.19" y2="10925.52" gradientTransform="translate(-5309.05 9641.58) rotate(21.07) scale(1 -1)" gradientUnits="userSpaceOnUse"><stop offset="0" stop-color="#296cb3"/><stop offset=".26" stop-color="#2a79bd"/><stop offset=".74" stop-color="#2f9dd7"/><stop offset="1" stop-color="#32b3e8"/></linearGradient></defs><g id="Layer_1-2"><g><g><polygon class="cls-8" points="10.44 8.54 13.01 16.61 21.59 0 10.44 8.54"/><polygon class="cls-1" points=".21 14.4 12.24 20.61 9.64 12.45 .21 14.4"/><polygon class="cls-7" points="23.48 16.84 13.03 20.36 21.66 3.64 23.48 16.84"/><polygon class="cls-9" points="27.12 27.13 14.93 21.23 25.38 17.42 27.12 27.13"/><polygon class="cls-4" points="17.75 37.89 13.11 21.9 4.82 37.88 17.75 37.89"/><polygon class="cls-3" points="24.55 27.35 13.11 21.91 17.75 37.9 24.55 27.35"/><polygon class="cls-5" points="0 27.37 10.8 22.81 2.82 38.28 0 27.37"/><polygon class="cls-10" points=".2 14.4 12.24 20.61 1.34 25.2 .2 14.4"/></g><g><path class="cls-2" d="M50.86,15.59c-1.17-.6-2.48-.9-3.95-.9h-8.66v23.33h3.83v-8.8h4.83c1.47,0,2.78-.3,3.95-.9,1.17-.6,2.09-1.44,2.77-2.53,.68-1.09,1.02-2.37,1.02-3.83s-.34-2.74-1.02-3.83c-.68-1.09-1.6-1.93-2.77-2.53Zm-.58,8.45c-.36,.59-.84,1.04-1.45,1.37-.61,.32-1.32,.48-2.12,.48h-4.63v-7.86h4.63c.8,0,1.5,.16,2.12,.48,.61,.32,1.09,.78,1.45,1.37,.35,.59,.53,1.28,.53,2.08s-.18,1.49-.53,2.08Z"/><path class="cls-2" d="M68.15,22.49c-.93-.53-2-.8-3.2-.8s-2.24,.27-3.18,.82c-.62,.36-1.14,.81-1.58,1.34v-6.23l-3.67-3.59v23.99h3.67v-9.23c0-.71,.16-1.34,.47-1.9,.31-.55,.74-.99,1.3-1.3,.55-.31,1.19-.47,1.9-.47,1.07,0,1.94,.34,2.62,1.03,.68,.69,1.02,1.57,1.02,2.63v9.23h3.67v-10.03c0-1.24-.27-2.34-.8-3.28s-1.27-1.68-2.2-2.22Z"/><polygon class="cls-2" points="79.99 32.45 75.89 22.03 71.86 22.03 77.94 36.41 73.92 44.69 77.99 44.69 80.95 38.19 88.39 22.03 84.32 22.03 79.99 32.45"/><path class="cls-2" d="M93.45,25.36c.4-.22,.97-.33,1.7-.33,.78,0,1.47,.14,2.07,.43,.6,.29,1.13,.72,1.6,1.3l2.33-2.33c-.67-.91-1.49-1.59-2.48-2.05-.99-.46-2.13-.68-3.42-.68s-2.27,.2-3.15,.6c-.88,.4-1.56,.97-2.03,1.7-.48,.73-.72,1.61-.72,2.63,0,.96,.2,1.73,.6,2.33,.4,.6,.92,1.07,1.55,1.42,.63,.34,1.3,.62,2,.82,.7,.2,1.37,.4,2,.58,.63,.19,1.15,.42,1.55,.68,.4,.27,.6,.64,.6,1.13s-.21,.82-.63,1.07-1.04,.37-1.87,.37c-.91,0-1.73-.16-2.45-.48-.72-.32-1.36-.81-1.92-1.45l-2.33,2.33c.51,.62,1.11,1.15,1.8,1.58,.69,.43,1.44,.77,2.27,1,.82,.23,1.68,.35,2.57,.35,1.87,0,3.34-.46,4.43-1.37,1.09-.91,1.63-2.14,1.63-3.7,0-.98-.2-1.77-.6-2.38-.4-.61-.92-1.1-1.55-1.47-.63-.37-1.3-.65-2-.87-.7-.21-1.37-.41-2-.58-.63-.18-1.15-.39-1.55-.63-.4-.24-.6-.59-.6-1.03s.2-.74,.6-.97Z"/><rect class="cls-2" x="103.37" y="22.03" width="3.67" height="16"/><path class="cls-2" d="M115.23,25.84c.7-.41,1.5-.62,2.42-.62,.78,0,1.49,.14,2.15,.42,.65,.28,1.22,.69,1.68,1.25l2.4-2.43c-.76-.89-1.67-1.57-2.75-2.05-1.08-.48-2.24-.72-3.48-.72-1.58,0-3,.37-4.28,1.1-1.28,.73-2.28,1.73-3.02,2.98-.73,1.26-1.1,2.67-1.1,4.25s.37,2.97,1.1,4.23,1.74,2.27,3.02,3c1.28,.73,2.7,1.1,4.28,1.1,1.24,0,2.4-.24,3.48-.72,1.08-.48,1.99-1.16,2.75-2.05l-2.4-2.43c-.47,.56-1.03,.97-1.68,1.25-.66,.28-1.37,.42-2.15,.42-.91,0-1.72-.2-2.42-.62-.7-.41-1.24-.98-1.63-1.7-.39-.72-.58-1.55-.58-2.48s.19-1.79,.58-2.5c.39-.71,.93-1.27,1.63-1.68Z"/><path class="cls-2" d="M137.45,23.82c-.46-.54-1.01-.99-1.65-1.34-.94-.52-2.03-.78-3.25-.78-1.44,0-2.75,.37-3.92,1.12-1.17,.74-2.09,1.74-2.77,3-.68,1.26-1.02,2.67-1.02,4.25s.34,2.96,1.02,4.22c.68,1.26,1.6,2.25,2.77,2.98,1.17,.73,2.47,1.1,3.92,1.1,1.22,0,2.31-.26,3.27-.78,.64-.35,1.18-.79,1.63-1.32v1.77h3.67v-16h-3.67v1.79Zm-1.02,9.7c-.83,.91-1.93,1.37-3.28,1.37-.89,0-1.67-.21-2.35-.62-.68-.41-1.21-.98-1.6-1.72-.39-.73-.58-1.58-.58-2.53s.19-1.8,.58-2.53c.39-.73,.92-1.3,1.6-1.72,.68-.41,1.46-.62,2.35-.62s1.7,.21,2.38,.62c.68,.41,1.2,.98,1.58,1.72,.38,.73,.57,1.58,.57,2.53,0,1.42-.42,2.59-1.25,3.5Z"/><polygon class="cls-2" points="144.33 38.02 148 38.02 148 14.03 144.33 17.62 144.33 38.02"/></g><polygon class="cls-6" points="103.23 19.61 102.78 14.99 107.19 17.64 106.95 19.58 103.23 19.61"/><g><path class="cls-2" d="M168.18,17.42c-1.08-1.05-2.36-1.89-3.81-2.47-1.45-.59-3.08-.88-4.83-.88h-8.26v23.87h8.32c1.73,0,3.34-.3,4.8-.88,1.45-.59,2.73-1.42,3.8-2.49,1.07-1.07,1.91-2.35,2.49-3.8,.59-1.45,.88-3.06,.88-4.76s-.3-3.34-.88-4.8c-.59-1.45-1.43-2.73-2.51-3.78Zm.48,3.14c.88,1.57,1.33,3.39,1.33,5.41s-.45,3.87-1.33,5.44c-.88,1.57-2.12,2.82-3.69,3.73-1.57,.9-3.4,1.36-5.44,1.36h-6.74V15.51h6.74c2.04,0,3.87,.45,5.44,1.35,1.57,.89,2.81,2.14,3.69,3.71Z"/><rect class="cls-2" x="174.52" y="21.57" width="1.48" height="16.37"/><path class="cls-2" d="M175.24,15.32c-.35,0-.66,.12-.91,.37-.25,.25-.37,.56-.37,.94,0,.35,.12,.67,.36,.93,.25,.27,.55,.41,.91,.41,.38,0,.7-.14,.96-.41,.26-.27,.38-.58,.38-.94,0-.38-.13-.7-.39-.94-.26-.24-.58-.37-.95-.37Z"/><path class="cls-2" d="M193.83,24.76c-.18-.31-.38-.59-.6-.86-.7-.85-1.58-1.52-2.61-1.98-1.03-.46-2.18-.69-3.43-.69-1.56,0-2.98,.37-4.22,1.1-1.24,.73-2.23,1.74-2.94,2.99-.71,1.25-1.07,2.69-1.07,4.26s.37,3.05,1.09,4.3c.72,1.25,1.71,2.25,2.95,2.97,1.24,.72,2.67,1.09,4.25,1.09,1.23,0,2.36-.23,3.36-.7,1.01-.46,1.87-1.13,2.57-1.98,.23-.29,.45-.59,.63-.91v2.8c0,1.99-.64,3.6-1.9,4.77-1.26,1.17-3,1.77-5.16,1.77-1.44,0-2.73-.27-3.84-.81-1.1-.54-1.96-1.25-2.56-2.12l-.14-.2-.95,.95,.1,.14c.78,1.11,1.82,1.97,3.1,2.57,1.27,.59,2.7,.89,4.25,.89,1.69,0,3.2-.33,4.48-.99,1.29-.66,2.3-1.6,3.01-2.78,.71-1.18,1.07-2.59,1.07-4.17v-15.58h-1.48v3.19Zm-3.04,10.91c-.97,.57-2.11,.86-3.39,.86-1.35,0-2.55-.3-3.58-.89-1.03-.59-1.85-1.43-2.44-2.48-.59-1.05-.89-2.27-.89-3.62s.29-2.55,.88-3.58c.58-1.03,1.4-1.85,2.43-2.44,1.03-.59,2.22-.89,3.55-.89s2.45,.3,3.42,.89,1.74,1.41,2.29,2.44c.55,1.03,.83,2.25,.83,3.62s-.27,2.63-.81,3.68c-.54,1.04-1.3,1.85-2.27,2.42Z"/><rect class="cls-2" x="199.22" y="21.57" width="1.48" height="16.37"/><path class="cls-2" d="M199.94,15.32c-.35,0-.66,.12-.91,.37-.25,.25-.37,.56-.37,.94,0,.35,.12,.67,.36,.93,.25,.27,.55,.41,.91,.41,.38,0,.7-.14,.96-.41,.26-.27,.38-.58,.38-.94,0-.38-.13-.7-.39-.94-.26-.24-.58-.37-.95-.37Z"/><polygon class="cls-2" points="209.21 14.76 207.73 14.76 207.73 21.57 203.49 21.57 203.49 22.91 207.73 22.91 207.73 37.94 209.21 37.94 209.21 22.91 213.41 22.91 213.41 21.57 209.21 21.57 209.21 14.76"/><path class="cls-2" d="M223.67,29.76c-.72-.34-1.5-.62-2.31-.84-.8-.22-1.56-.46-2.26-.71-.69-.24-1.25-.59-1.68-1.03-.41-.42-.62-1.02-.62-1.77,0-.8,.31-1.46,.94-2,.63-.54,1.58-.82,2.82-.82,.98,0,1.89,.19,2.69,.55,.8,.37,1.42,.86,1.87,1.48l.14,.19,1.01-1.01-.1-.14c-.55-.79-1.33-1.4-2.31-1.82-.97-.41-2.05-.62-3.2-.62-1.07,0-2.01,.18-2.79,.54-.79,.36-1.42,.86-1.85,1.49-.44,.63-.66,1.37-.66,2.2,0,1.01,.24,1.83,.72,2.43,.47,.59,1.08,1.05,1.83,1.38,.72,.32,1.5,.59,2.3,.82,.79,.23,1.55,.48,2.26,.76,.68,.26,1.25,.64,1.68,1.13,.42,.47,.63,1.13,.63,1.95,0,.94-.36,1.65-1.1,2.18-.75,.54-1.77,.81-3.04,.81-1.03,0-1.99-.21-2.87-.62-.87-.41-1.65-1.06-2.32-1.94l-.14-.19-1.01,1.06,.11,.14c.47,.57,1.02,1.08,1.63,1.51,.62,.44,1.32,.79,2.09,1.03,.77,.25,1.6,.37,2.47,.37,1.68,0,3.05-.41,4.06-1.21,1.03-.81,1.55-1.92,1.55-3.3,0-1.08-.24-1.95-.72-2.57-.47-.61-1.08-1.1-1.83-1.45Z"/></g></g></g></svg>